<mxfile host="Electron" modified="2024-03-06T13:10:17.557Z" agent="Mozilla/5.0 (Windows NT 10.0; Win64; x64) AppleWebKit/537.36 (KHTML, like Gecko) draw.io/23.1.5 Chrome/120.0.6099.109 Electron/28.1.0 Safari/537.36" etag="d5M2aqYzYIo5psgEN1Ny" version="23.1.5" type="device">
  <diagram name="Page-1" id="c4acf3e9-155e-7222-9cf6-157b1a14988f">
    <mxGraphModel dx="989" dy="577" grid="1" gridSize="10" guides="1" tooltips="1" connect="1" arrows="1" fold="1" page="1" pageScale="1" pageWidth="2200" pageHeight="1400" background="#ffffff" math="0" shadow="0">
      <root>
        <mxCell id="0" />
        <mxCell id="1" parent="0" />
        <mxCell id="fEwEx9mOlt6JljOtrG-w-179" value="&amp;nbsp; &amp;nbsp; &amp;nbsp; &amp;nbsp; &amp;nbsp; &amp;nbsp; Interfaces" style="shape=folder;fontStyle=1;spacingTop=10;tabWidth=40;tabHeight=14;tabPosition=left;html=1;whiteSpace=wrap;align=left;" parent="1" vertex="1">
          <mxGeometry x="10" y="10" width="1790" height="357" as="geometry" />
        </mxCell>
        <mxCell id="TN-Is-sh9F5A8VuO-S4N-15" value="WebLarekAPI" style="swimlane;fontStyle=1;align=center;verticalAlign=top;childLayout=stackLayout;horizontal=1;startSize=26;horizontalStack=0;resizeParent=1;resizeParentMax=0;resizeLast=0;collapsible=1;marginBottom=0;whiteSpace=wrap;html=1;swimlaneFillColor=default;" vertex="1" parent="1">
          <mxGeometry x="10" y="487" width="370" height="86" as="geometry" />
        </mxCell>
        <mxCell id="TN-Is-sh9F5A8VuO-S4N-16" value="+ cdn: string {readOnly}" style="text;strokeColor=none;fillColor=none;align=left;verticalAlign=top;spacingLeft=4;spacingRight=4;overflow=hidden;rotatable=0;points=[[0,0.5],[1,0.5]];portConstraint=eastwest;whiteSpace=wrap;html=1;" vertex="1" parent="TN-Is-sh9F5A8VuO-S4N-15">
          <mxGeometry y="26" width="370" height="26" as="geometry" />
        </mxCell>
        <mxCell id="TN-Is-sh9F5A8VuO-S4N-17" value="" style="line;strokeWidth=1;fillColor=none;align=left;verticalAlign=middle;spacingTop=-1;spacingLeft=3;spacingRight=3;rotatable=0;labelPosition=right;points=[];portConstraint=eastwest;strokeColor=inherit;" vertex="1" parent="TN-Is-sh9F5A8VuO-S4N-15">
          <mxGeometry y="52" width="370" height="8" as="geometry" />
        </mxCell>
        <mxCell id="TN-Is-sh9F5A8VuO-S4N-18" value="+&amp;nbsp;WebLarekAPI(cdn: string, baseUrl: string, options?: RequestInit)" style="text;strokeColor=none;fillColor=none;align=left;verticalAlign=top;spacingLeft=4;spacingRight=4;overflow=hidden;rotatable=0;points=[[0,0.5],[1,0.5]];portConstraint=eastwest;whiteSpace=wrap;html=1;" vertex="1" parent="TN-Is-sh9F5A8VuO-S4N-15">
          <mxGeometry y="60" width="370" height="26" as="geometry" />
        </mxCell>
        <mxCell id="TN-Is-sh9F5A8VuO-S4N-19" value="" style="shape=folder;fontStyle=1;spacingTop=10;tabWidth=40;tabHeight=14;tabPosition=left;html=1;whiteSpace=wrap;" vertex="1" parent="1">
          <mxGeometry x="420" y="420" width="1750" height="210" as="geometry" />
        </mxCell>
        <mxCell id="TN-Is-sh9F5A8VuO-S4N-20" value="Base" style="text;html=1;align=center;verticalAlign=middle;resizable=0;points=[];autosize=1;strokeColor=none;fillColor=none;" vertex="1" parent="1">
          <mxGeometry x="440" y="460" width="50" height="30" as="geometry" />
        </mxCell>
        <mxCell id="TN-Is-sh9F5A8VuO-S4N-21" value="Api" style="swimlane;fontStyle=1;align=center;verticalAlign=top;childLayout=stackLayout;horizontal=1;startSize=26;horizontalStack=0;resizeParent=1;resizeParentMax=0;resizeLast=0;collapsible=1;marginBottom=0;whiteSpace=wrap;html=1;" vertex="1" parent="1">
          <mxGeometry x="530" y="460" width="260" height="140" as="geometry" />
        </mxCell>
        <mxCell id="TN-Is-sh9F5A8VuO-S4N-22" value="+ baseUrl: string {readOnly}&lt;br style=&quot;border-color: var(--border-color); padding: 0px; margin: 0px;&quot;&gt;&lt;span style=&quot;&quot;&gt;# options: RequestInit&lt;/span&gt;" style="text;strokeColor=none;fillColor=none;align=left;verticalAlign=top;spacingLeft=4;spacingRight=4;overflow=hidden;rotatable=0;points=[[0,0.5],[1,0.5]];portConstraint=eastwest;whiteSpace=wrap;html=1;" vertex="1" parent="TN-Is-sh9F5A8VuO-S4N-21">
          <mxGeometry y="26" width="260" height="34" as="geometry" />
        </mxCell>
        <mxCell id="TN-Is-sh9F5A8VuO-S4N-23" value="" style="line;strokeWidth=1;fillColor=none;align=left;verticalAlign=middle;spacingTop=-1;spacingLeft=3;spacingRight=3;rotatable=0;labelPosition=right;points=[];portConstraint=eastwest;strokeColor=inherit;" vertex="1" parent="TN-Is-sh9F5A8VuO-S4N-21">
          <mxGeometry y="60" width="260" height="8" as="geometry" />
        </mxCell>
        <mxCell id="TN-Is-sh9F5A8VuO-S4N-24" value="+ Api(baseUrl: string, options: RequestInit = {})&lt;br style=&quot;border-color: var(--border-color); padding: 0px; margin: 0px;&quot;&gt;# handleResponse(Response): Promise&amp;nbsp;&lt;br style=&quot;border-color: var(--border-color); padding: 0px; margin: 0px;&quot;&gt;+ get(string): Promise&lt;br style=&quot;border-color: var(--border-color); padding: 0px; margin: 0px;&quot;&gt;+ post(string, object, HttpMethod): Promise" style="text;strokeColor=none;fillColor=none;align=left;verticalAlign=top;spacingLeft=4;spacingRight=4;overflow=hidden;rotatable=0;points=[[0,0.5],[1,0.5]];portConstraint=eastwest;whiteSpace=wrap;html=1;" vertex="1" parent="TN-Is-sh9F5A8VuO-S4N-21">
          <mxGeometry y="68" width="260" height="72" as="geometry" />
        </mxCell>
        <mxCell id="TN-Is-sh9F5A8VuO-S4N-25" value="&lt;p style=&quot;margin:0px;margin-top:4px;text-align:center;&quot;&gt;&lt;i&gt;&amp;lt;&amp;lt;Interface&amp;gt;&amp;gt;&lt;/i&gt;&lt;br&gt;&lt;b&gt;IEvents&lt;/b&gt;&lt;/p&gt;&lt;hr size=&quot;1&quot;&gt;&lt;p style=&quot;margin:0px;margin-left:4px;&quot;&gt;&lt;br&gt;&lt;/p&gt;&lt;hr size=&quot;1&quot;&gt;&lt;p style=&quot;margin:0px;margin-left:4px;&quot;&gt;+ on(EventName, (data: T) =&amp;gt; void)&lt;/p&gt;&lt;p style=&quot;margin:0px;margin-left:4px;&quot;&gt;+ emit(string, data?: T);&lt;/p&gt;&lt;p style=&quot;margin:0px;margin-left:4px;&quot;&gt;+ trigger(string, context?: Partial&amp;lt;T&amp;gt;): (data: T) =&amp;gt; void;&lt;/p&gt;" style="verticalAlign=top;align=left;overflow=fill;fontSize=12;fontFamily=Helvetica;html=1;whiteSpace=wrap;" vertex="1" parent="1">
          <mxGeometry x="1070" y="40" width="300" height="120" as="geometry" />
        </mxCell>
        <mxCell id="TN-Is-sh9F5A8VuO-S4N-26" value="EventEmitter" style="swimlane;fontStyle=1;align=center;verticalAlign=top;childLayout=stackLayout;horizontal=1;startSize=26;horizontalStack=0;resizeParent=1;resizeParentMax=0;resizeLast=0;collapsible=1;marginBottom=0;whiteSpace=wrap;html=1;" vertex="1" parent="1">
          <mxGeometry x="820" y="460" width="300" height="130" as="geometry" />
        </mxCell>
        <mxCell id="TN-Is-sh9F5A8VuO-S4N-27" value="-&amp;nbsp;events: Map&amp;lt;EventName, Set&amp;lt;Subscriber&amp;gt;&amp;gt;;" style="text;strokeColor=none;fillColor=none;align=left;verticalAlign=top;spacingLeft=4;spacingRight=4;overflow=hidden;rotatable=0;points=[[0,0.5],[1,0.5]];portConstraint=eastwest;whiteSpace=wrap;html=1;" vertex="1" parent="TN-Is-sh9F5A8VuO-S4N-26">
          <mxGeometry y="26" width="300" height="26" as="geometry" />
        </mxCell>
        <mxCell id="TN-Is-sh9F5A8VuO-S4N-28" value="" style="line;strokeWidth=1;fillColor=none;align=left;verticalAlign=middle;spacingTop=-1;spacingLeft=3;spacingRight=3;rotatable=0;labelPosition=right;points=[];portConstraint=eastwest;strokeColor=inherit;" vertex="1" parent="TN-Is-sh9F5A8VuO-S4N-26">
          <mxGeometry y="52" width="300" height="8" as="geometry" />
        </mxCell>
        <mxCell id="TN-Is-sh9F5A8VuO-S4N-29" value="+ EventEmitter()&lt;br&gt;+ onAll((event: EmitterEvent) =&amp;gt; void)&lt;br&gt;+ off(EventName, Subscriber)&lt;br&gt;+&amp;nbsp;offAll()" style="text;strokeColor=none;fillColor=none;align=left;verticalAlign=top;spacingLeft=4;spacingRight=4;overflow=hidden;rotatable=0;points=[[0,0.5],[1,0.5]];portConstraint=eastwest;whiteSpace=wrap;html=1;" vertex="1" parent="TN-Is-sh9F5A8VuO-S4N-26">
          <mxGeometry y="60" width="300" height="70" as="geometry" />
        </mxCell>
        <mxCell id="TN-Is-sh9F5A8VuO-S4N-30" value="" style="endArrow=block;dashed=1;endFill=0;endSize=12;html=1;rounded=0;entryX=0.5;entryY=1;entryDx=0;entryDy=0;exitX=0.5;exitY=0;exitDx=0;exitDy=0;" edge="1" parent="1" source="TN-Is-sh9F5A8VuO-S4N-26" target="TN-Is-sh9F5A8VuO-S4N-25">
          <mxGeometry width="160" relative="1" as="geometry">
            <mxPoint x="1000" y="900" as="sourcePoint" />
            <mxPoint x="1160" y="900" as="targetPoint" />
          </mxGeometry>
        </mxCell>
        <mxCell id="TN-Is-sh9F5A8VuO-S4N-37" value="Extends" style="endArrow=block;endSize=16;endFill=0;html=1;rounded=0;" edge="1" parent="1" source="TN-Is-sh9F5A8VuO-S4N-15" target="TN-Is-sh9F5A8VuO-S4N-21">
          <mxGeometry width="160" relative="1" as="geometry">
            <mxPoint x="390" y="550" as="sourcePoint" />
            <mxPoint x="545" y="602.66" as="targetPoint" />
          </mxGeometry>
        </mxCell>
        <mxCell id="TN-Is-sh9F5A8VuO-S4N-40" value="" style="endArrow=block;dashed=1;endFill=0;endSize=12;html=1;rounded=0;" edge="1" parent="1" source="TN-Is-sh9F5A8VuO-S4N-15" target="TN-Is-sh9F5A8VuO-S4N-108">
          <mxGeometry width="160" relative="1" as="geometry">
            <mxPoint x="530" y="630" as="sourcePoint" />
            <mxPoint x="681.382978723404" y="350" as="targetPoint" />
            <Array as="points">
              <mxPoint x="195" y="400" />
              <mxPoint x="580" y="400" />
            </Array>
          </mxGeometry>
        </mxCell>
        <mxCell id="TN-Is-sh9F5A8VuO-S4N-41" value="Component&amp;lt;T&amp;gt;" style="swimlane;fontStyle=1;align=center;verticalAlign=top;childLayout=stackLayout;horizontal=1;startSize=26;horizontalStack=0;resizeParent=1;resizeParentMax=0;resizeLast=0;collapsible=1;marginBottom=0;whiteSpace=wrap;html=1;" vertex="1" parent="1">
          <mxGeometry x="1220" y="460" width="290" height="140" as="geometry" />
        </mxCell>
        <mxCell id="TN-Is-sh9F5A8VuO-S4N-42" value="# container: HTMLElement {readOnly}" style="text;strokeColor=none;fillColor=none;align=left;verticalAlign=top;spacingLeft=4;spacingRight=4;overflow=hidden;rotatable=0;points=[[0,0.5],[1,0.5]];portConstraint=eastwest;whiteSpace=wrap;html=1;" vertex="1" parent="TN-Is-sh9F5A8VuO-S4N-41">
          <mxGeometry y="26" width="290" height="24" as="geometry" />
        </mxCell>
        <mxCell id="TN-Is-sh9F5A8VuO-S4N-43" value="" style="line;strokeWidth=1;fillColor=none;align=left;verticalAlign=middle;spacingTop=-1;spacingLeft=3;spacingRight=3;rotatable=0;labelPosition=right;points=[];portConstraint=eastwest;strokeColor=inherit;" vertex="1" parent="TN-Is-sh9F5A8VuO-S4N-41">
          <mxGeometry y="50" width="290" height="8" as="geometry" />
        </mxCell>
        <mxCell id="TN-Is-sh9F5A8VuO-S4N-44" value="# Component(container: HTMLElement)&lt;br style=&quot;border-color: var(--border-color); padding: 0px; margin: 0px;&quot;&gt;&lt;span style=&quot;&quot;&gt;+ toggleClass(className: string)&lt;/span&gt;&lt;br style=&quot;border-color: var(--border-color); padding: 0px; margin: 0px;&quot;&gt;&lt;span style=&quot;&quot;&gt;+ render(data?: T): HTMLElement&lt;/span&gt;&lt;br style=&quot;border-color: var(--border-color); padding: 0px; margin: 0px;&quot;&gt;&lt;span style=&quot;&quot;&gt;#&amp;nbsp;setText(element: HTMLElement, value: unknown)&amp;nbsp;&lt;/span&gt;&lt;br style=&quot;border-color: var(--border-color); padding: 0px; margin: 0px;&quot;&gt;&lt;span style=&quot;&quot;&gt;# setImage(HTMLImageElement,&lt;/span&gt;&lt;span style=&quot;&quot;&gt;&amp;nbsp;string, string)&lt;/span&gt;" style="text;strokeColor=none;fillColor=none;align=left;verticalAlign=top;spacingLeft=4;spacingRight=4;overflow=hidden;rotatable=0;points=[[0,0.5],[1,0.5]];portConstraint=eastwest;whiteSpace=wrap;html=1;" vertex="1" parent="TN-Is-sh9F5A8VuO-S4N-41">
          <mxGeometry y="58" width="290" height="82" as="geometry" />
        </mxCell>
        <mxCell id="TN-Is-sh9F5A8VuO-S4N-45" value="View&amp;lt;T&amp;gt;" style="swimlane;fontStyle=1;align=center;verticalAlign=top;childLayout=stackLayout;horizontal=1;startSize=26;horizontalStack=0;resizeParent=1;resizeParentMax=0;resizeLast=0;collapsible=1;marginBottom=0;whiteSpace=wrap;html=1;" vertex="1" parent="1">
          <mxGeometry x="1710" y="490" width="210" height="86" as="geometry" />
        </mxCell>
        <mxCell id="TN-Is-sh9F5A8VuO-S4N-46" value="# events: HTMLElement {readOnly}" style="text;strokeColor=none;fillColor=none;align=left;verticalAlign=top;spacingLeft=4;spacingRight=4;overflow=hidden;rotatable=0;points=[[0,0.5],[1,0.5]];portConstraint=eastwest;whiteSpace=wrap;html=1;" vertex="1" parent="TN-Is-sh9F5A8VuO-S4N-45">
          <mxGeometry y="26" width="210" height="26" as="geometry" />
        </mxCell>
        <mxCell id="TN-Is-sh9F5A8VuO-S4N-47" value="" style="line;strokeWidth=1;fillColor=none;align=left;verticalAlign=middle;spacingTop=-1;spacingLeft=3;spacingRight=3;rotatable=0;labelPosition=right;points=[];portConstraint=eastwest;strokeColor=inherit;" vertex="1" parent="TN-Is-sh9F5A8VuO-S4N-45">
          <mxGeometry y="52" width="210" height="8" as="geometry" />
        </mxCell>
        <mxCell id="TN-Is-sh9F5A8VuO-S4N-48" value="+&amp;nbsp;View(IEvents, HTMLElement)" style="text;strokeColor=none;fillColor=none;align=left;verticalAlign=top;spacingLeft=4;spacingRight=4;overflow=hidden;rotatable=0;points=[[0,0.5],[1,0.5]];portConstraint=eastwest;whiteSpace=wrap;html=1;" vertex="1" parent="TN-Is-sh9F5A8VuO-S4N-45">
          <mxGeometry y="60" width="210" height="26" as="geometry" />
        </mxCell>
        <mxCell id="TN-Is-sh9F5A8VuO-S4N-49" value="Extends" style="endArrow=block;endSize=16;endFill=0;html=1;rounded=0;" edge="1" parent="1" source="TN-Is-sh9F5A8VuO-S4N-45" target="TN-Is-sh9F5A8VuO-S4N-41">
          <mxGeometry width="160" relative="1" as="geometry">
            <mxPoint x="1530" y="350" as="sourcePoint" />
            <mxPoint x="1690" y="350" as="targetPoint" />
          </mxGeometry>
        </mxCell>
        <mxCell id="TN-Is-sh9F5A8VuO-S4N-93" value="" style="shape=folder;fontStyle=1;spacingTop=10;tabWidth=40;tabHeight=14;tabPosition=left;html=1;whiteSpace=wrap;" vertex="1" parent="1">
          <mxGeometry x="1360" y="670" width="810" height="430" as="geometry" />
        </mxCell>
        <mxCell id="TN-Is-sh9F5A8VuO-S4N-94" value="Common" style="text;html=1;align=center;verticalAlign=middle;resizable=0;points=[];autosize=1;strokeColor=none;fillColor=none;" vertex="1" parent="1">
          <mxGeometry x="1360" y="700" width="70" height="30" as="geometry" />
        </mxCell>
        <mxCell id="TN-Is-sh9F5A8VuO-S4N-74" value="Modal" style="swimlane;fontStyle=1;align=center;verticalAlign=top;childLayout=stackLayout;horizontal=1;startSize=26;horizontalStack=0;resizeParent=1;resizeParentMax=0;resizeLast=0;collapsible=1;marginBottom=0;whiteSpace=wrap;html=1;" vertex="1" parent="1">
          <mxGeometry x="1440" y="710" width="210" height="150" as="geometry" />
        </mxCell>
        <mxCell id="TN-Is-sh9F5A8VuO-S4N-75" value="&lt;div&gt;# closeButton: HTMLButtonElement&lt;/div&gt;&lt;div&gt;# content: HTMLElement&lt;/div&gt;" style="text;strokeColor=none;fillColor=none;align=left;verticalAlign=top;spacingLeft=4;spacingRight=4;overflow=hidden;rotatable=0;points=[[0,0.5],[1,0.5]];portConstraint=eastwest;whiteSpace=wrap;html=1;" vertex="1" parent="TN-Is-sh9F5A8VuO-S4N-74">
          <mxGeometry y="26" width="210" height="34" as="geometry" />
        </mxCell>
        <mxCell id="TN-Is-sh9F5A8VuO-S4N-76" value="" style="line;strokeWidth=1;fillColor=none;align=left;verticalAlign=middle;spacingTop=-1;spacingLeft=3;spacingRight=3;rotatable=0;labelPosition=right;points=[];portConstraint=eastwest;strokeColor=inherit;" vertex="1" parent="TN-Is-sh9F5A8VuO-S4N-74">
          <mxGeometry y="60" width="210" height="8" as="geometry" />
        </mxCell>
        <mxCell id="TN-Is-sh9F5A8VuO-S4N-77" value="+ Modal(&lt;span style=&quot;border-color: var(--border-color); text-align: center;&quot;&gt;IEvents&lt;/span&gt;, HTMLElement)&lt;br&gt;+&amp;nbsp;content(HTMLElement)&lt;br&gt;+&amp;nbsp;open()&lt;br&gt;+ close()&lt;br&gt;+ render(IModalData): HTMLElement" style="text;strokeColor=none;fillColor=none;align=left;verticalAlign=top;spacingLeft=4;spacingRight=4;overflow=hidden;rotatable=0;points=[[0,0.5],[1,0.5]];portConstraint=eastwest;whiteSpace=wrap;html=1;" vertex="1" parent="TN-Is-sh9F5A8VuO-S4N-74">
          <mxGeometry y="68" width="210" height="82" as="geometry" />
        </mxCell>
        <mxCell id="TN-Is-sh9F5A8VuO-S4N-58" value="Form" style="swimlane;fontStyle=1;align=center;verticalAlign=top;childLayout=stackLayout;horizontal=1;startSize=26;horizontalStack=0;resizeParent=1;resizeParentMax=0;resizeLast=0;collapsible=1;marginBottom=0;whiteSpace=wrap;html=1;" vertex="1" parent="1">
          <mxGeometry x="1680" y="710" width="240" height="150" as="geometry" />
        </mxCell>
        <mxCell id="TN-Is-sh9F5A8VuO-S4N-59" value="&lt;div&gt;# submit: HTMLButtonElement&lt;/div&gt;&lt;div&gt;# errors: HTMLElement&lt;/div&gt;" style="text;strokeColor=none;fillColor=none;align=left;verticalAlign=top;spacingLeft=4;spacingRight=4;overflow=hidden;rotatable=0;points=[[0,0.5],[1,0.5]];portConstraint=eastwest;whiteSpace=wrap;html=1;" vertex="1" parent="TN-Is-sh9F5A8VuO-S4N-58">
          <mxGeometry y="26" width="240" height="34" as="geometry" />
        </mxCell>
        <mxCell id="TN-Is-sh9F5A8VuO-S4N-60" value="" style="line;strokeWidth=1;fillColor=none;align=left;verticalAlign=middle;spacingTop=-1;spacingLeft=3;spacingRight=3;rotatable=0;labelPosition=right;points=[];portConstraint=eastwest;strokeColor=inherit;" vertex="1" parent="TN-Is-sh9F5A8VuO-S4N-58">
          <mxGeometry y="60" width="240" height="8" as="geometry" />
        </mxCell>
        <mxCell id="TN-Is-sh9F5A8VuO-S4N-61" value="+ Form(&lt;span style=&quot;border-color: var(--border-color); text-align: center;&quot;&gt;IEvents&lt;/span&gt;, HTMLFormElement)&lt;br&gt;#&amp;nbsp;onInputChange(field: string, value: string)&lt;br&gt;+&amp;nbsp;valid(boolean)&lt;br&gt;+ errors(string)&lt;br&gt;+ render(IFormState): HTMLElement" style="text;strokeColor=none;fillColor=none;align=left;verticalAlign=top;spacingLeft=4;spacingRight=4;overflow=hidden;rotatable=0;points=[[0,0.5],[1,0.5]];portConstraint=eastwest;whiteSpace=wrap;html=1;" vertex="1" parent="TN-Is-sh9F5A8VuO-S4N-58">
          <mxGeometry y="68" width="240" height="82" as="geometry" />
        </mxCell>
        <mxCell id="TN-Is-sh9F5A8VuO-S4N-73" value="Extends" style="endArrow=block;endSize=16;endFill=0;html=1;rounded=0;entryX=0.427;entryY=1.021;entryDx=0;entryDy=0;entryPerimeter=0;" edge="1" parent="1" source="TN-Is-sh9F5A8VuO-S4N-58" target="TN-Is-sh9F5A8VuO-S4N-48">
          <mxGeometry width="160" relative="1" as="geometry">
            <mxPoint x="1750" y="572" as="sourcePoint" />
            <mxPoint x="1550" y="571" as="targetPoint" />
          </mxGeometry>
        </mxCell>
        <mxCell id="TN-Is-sh9F5A8VuO-S4N-83" value="Extends" style="endArrow=block;endSize=16;endFill=0;html=1;rounded=0;entryX=0.101;entryY=1.004;entryDx=0;entryDy=0;entryPerimeter=0;" edge="1" parent="1" source="TN-Is-sh9F5A8VuO-S4N-74" target="TN-Is-sh9F5A8VuO-S4N-48">
          <mxGeometry x="-0.2266" y="-3" width="160" relative="1" as="geometry">
            <mxPoint x="2080" y="920" as="sourcePoint" />
            <mxPoint x="1864" y="596" as="targetPoint" />
            <Array as="points">
              <mxPoint x="1545" y="660" />
              <mxPoint x="1730" y="660" />
            </Array>
            <mxPoint as="offset" />
          </mxGeometry>
        </mxCell>
        <mxCell id="TN-Is-sh9F5A8VuO-S4N-54" value="Basket" style="swimlane;fontStyle=1;align=center;verticalAlign=top;childLayout=stackLayout;horizontal=1;startSize=26;horizontalStack=0;resizeParent=1;resizeParentMax=0;resizeLast=0;collapsible=1;marginBottom=0;whiteSpace=wrap;html=1;" vertex="1" parent="1">
          <mxGeometry x="1950" y="710" width="205" height="150" as="geometry" />
        </mxCell>
        <mxCell id="TN-Is-sh9F5A8VuO-S4N-55" value="&lt;u&gt;+ template:&amp;nbsp;HTMLTemplateElement&lt;/u&gt;&lt;br&gt;&lt;div style=&quot;&quot;&gt;# list: HTMLElement&lt;/div&gt;&lt;div style=&quot;&quot;&gt;# total: HTMLElement&lt;/div&gt;&lt;div style=&quot;&quot;&gt;# button: HTMLElement&lt;/div&gt;" style="text;strokeColor=none;fillColor=none;align=left;verticalAlign=top;spacingLeft=4;spacingRight=4;overflow=hidden;rotatable=0;points=[[0,0.5],[1,0.5]];portConstraint=eastwest;whiteSpace=wrap;html=1;" vertex="1" parent="TN-Is-sh9F5A8VuO-S4N-54">
          <mxGeometry y="26" width="205" height="64" as="geometry" />
        </mxCell>
        <mxCell id="TN-Is-sh9F5A8VuO-S4N-56" value="" style="line;strokeWidth=1;fillColor=none;align=left;verticalAlign=middle;spacingTop=-1;spacingLeft=3;spacingRight=3;rotatable=0;labelPosition=right;points=[];portConstraint=eastwest;strokeColor=inherit;" vertex="1" parent="TN-Is-sh9F5A8VuO-S4N-54">
          <mxGeometry y="90" width="205" height="8" as="geometry" />
        </mxCell>
        <mxCell id="TN-Is-sh9F5A8VuO-S4N-57" value="+ Basket(&lt;span style=&quot;border-color: var(--border-color); text-align: center;&quot;&gt;IEvents,&amp;nbsp;HTMLElement&lt;/span&gt;)&lt;br&gt;+ items(HTMLElement[])&lt;br&gt;+ total(number)" style="text;strokeColor=none;fillColor=none;align=left;verticalAlign=top;spacingLeft=4;spacingRight=4;overflow=hidden;rotatable=0;points=[[0,0.5],[1,0.5]];portConstraint=eastwest;whiteSpace=wrap;html=1;" vertex="1" parent="TN-Is-sh9F5A8VuO-S4N-54">
          <mxGeometry y="98" width="205" height="52" as="geometry" />
        </mxCell>
        <mxCell id="TN-Is-sh9F5A8VuO-S4N-72" value="Extends" style="endArrow=block;endSize=16;endFill=0;html=1;rounded=0;entryX=0.936;entryY=1.037;entryDx=0;entryDy=0;entryPerimeter=0;" edge="1" parent="1" source="TN-Is-sh9F5A8VuO-S4N-54" target="TN-Is-sh9F5A8VuO-S4N-48">
          <mxGeometry width="160" relative="1" as="geometry">
            <mxPoint x="1740" y="562" as="sourcePoint" />
            <mxPoint x="1540" y="561" as="targetPoint" />
            <Array as="points">
              <mxPoint x="2050" y="660" />
              <mxPoint x="1907" y="660" />
            </Array>
          </mxGeometry>
        </mxCell>
        <mxCell id="TN-Is-sh9F5A8VuO-S4N-95" value="" style="shape=folder;fontStyle=1;spacingTop=10;tabWidth=40;tabHeight=14;tabPosition=left;html=1;whiteSpace=wrap;" vertex="1" parent="1">
          <mxGeometry x="350" y="670" width="880" height="510" as="geometry" />
        </mxCell>
        <mxCell id="TN-Is-sh9F5A8VuO-S4N-96" value="Domain" style="text;html=1;align=center;verticalAlign=middle;resizable=0;points=[];autosize=1;strokeColor=none;fillColor=none;" vertex="1" parent="1">
          <mxGeometry x="360" y="700" width="60" height="30" as="geometry" />
        </mxCell>
        <mxCell id="TN-Is-sh9F5A8VuO-S4N-50" value="AppData" style="swimlane;fontStyle=1;align=center;verticalAlign=top;childLayout=stackLayout;horizontal=1;startSize=26;horizontalStack=0;resizeParent=1;resizeParentMax=0;resizeLast=0;collapsible=1;marginBottom=0;whiteSpace=wrap;html=1;" vertex="1" parent="1">
          <mxGeometry x="380" y="870" width="300" height="280" as="geometry" />
        </mxCell>
        <mxCell id="TN-Is-sh9F5A8VuO-S4N-51" value="+ items: IProduct[]&lt;br&gt;+&amp;nbsp;preview: IProduct&lt;br&gt;+ basket: IBasket&lt;br&gt;+&amp;nbsp;order: IOrder&lt;br&gt;+&amp;nbsp;formErrors: Object&lt;br&gt;# events: IEvents" style="text;strokeColor=none;fillColor=none;align=left;verticalAlign=top;spacingLeft=4;spacingRight=4;overflow=hidden;rotatable=0;points=[[0,0.5],[1,0.5]];portConstraint=eastwest;whiteSpace=wrap;html=1;" vertex="1" parent="TN-Is-sh9F5A8VuO-S4N-50">
          <mxGeometry y="26" width="300" height="94" as="geometry" />
        </mxCell>
        <mxCell id="TN-Is-sh9F5A8VuO-S4N-52" value="" style="line;strokeWidth=1;fillColor=none;align=left;verticalAlign=middle;spacingTop=-1;spacingLeft=3;spacingRight=3;rotatable=0;labelPosition=right;points=[];portConstraint=eastwest;strokeColor=inherit;" vertex="1" parent="TN-Is-sh9F5A8VuO-S4N-50">
          <mxGeometry y="120" width="300" height="8" as="geometry" />
        </mxCell>
        <mxCell id="TN-Is-sh9F5A8VuO-S4N-53" value="+ AppData(events: IEvents)&lt;br&gt;+&amp;nbsp;setItems(items: IProduct[])&lt;br&gt;+&amp;nbsp;setPreview(item: IProduct)&lt;br&gt;+&amp;nbsp;inBasket(item: IProduct)&lt;br&gt;+&amp;nbsp;addToBasket(item: IProduct)&lt;br&gt;+&amp;nbsp;removeFromBasket(item: IProduct)&lt;br&gt;+ clearBasket()&lt;br&gt;+ setPaymentMethod(method: PaymentMethod)&lt;br&gt;+&amp;nbsp;setOrderField(field: keyof OrderForm, value: string)&lt;br&gt;+&amp;nbsp;validateOrder()" style="text;strokeColor=none;fillColor=none;align=left;verticalAlign=top;spacingLeft=4;spacingRight=4;overflow=hidden;rotatable=0;points=[[0,0.5],[1,0.5]];portConstraint=eastwest;whiteSpace=wrap;html=1;" vertex="1" parent="TN-Is-sh9F5A8VuO-S4N-50">
          <mxGeometry y="128" width="300" height="152" as="geometry" />
        </mxCell>
        <mxCell id="TN-Is-sh9F5A8VuO-S4N-62" value="Success" style="swimlane;fontStyle=1;align=center;verticalAlign=top;childLayout=stackLayout;horizontal=1;startSize=26;horizontalStack=0;resizeParent=1;resizeParentMax=0;resizeLast=0;collapsible=1;marginBottom=0;whiteSpace=wrap;html=1;" vertex="1" parent="1">
          <mxGeometry x="430" y="720" width="250" height="110" as="geometry" />
        </mxCell>
        <mxCell id="TN-Is-sh9F5A8VuO-S4N-63" value="&lt;div&gt;# total: HTMLElement&lt;/div&gt;&lt;div&gt;# close: HTMLElement&lt;/div&gt;" style="text;strokeColor=none;fillColor=none;align=left;verticalAlign=top;spacingLeft=4;spacingRight=4;overflow=hidden;rotatable=0;points=[[0,0.5],[1,0.5]];portConstraint=eastwest;whiteSpace=wrap;html=1;" vertex="1" parent="TN-Is-sh9F5A8VuO-S4N-62">
          <mxGeometry y="26" width="250" height="34" as="geometry" />
        </mxCell>
        <mxCell id="TN-Is-sh9F5A8VuO-S4N-64" value="" style="line;strokeWidth=1;fillColor=none;align=left;verticalAlign=middle;spacingTop=-1;spacingLeft=3;spacingRight=3;rotatable=0;labelPosition=right;points=[];portConstraint=eastwest;strokeColor=inherit;" vertex="1" parent="TN-Is-sh9F5A8VuO-S4N-62">
          <mxGeometry y="60" width="250" height="8" as="geometry" />
        </mxCell>
        <mxCell id="TN-Is-sh9F5A8VuO-S4N-65" value="+ Success(HTMLElement, ISuccessActions)&lt;br&gt;+ total(number)" style="text;strokeColor=none;fillColor=none;align=left;verticalAlign=top;spacingLeft=4;spacingRight=4;overflow=hidden;rotatable=0;points=[[0,0.5],[1,0.5]];portConstraint=eastwest;whiteSpace=wrap;html=1;" vertex="1" parent="TN-Is-sh9F5A8VuO-S4N-62">
          <mxGeometry y="68" width="250" height="42" as="geometry" />
        </mxCell>
        <mxCell id="TN-Is-sh9F5A8VuO-S4N-66" value="Card" style="swimlane;fontStyle=1;align=center;verticalAlign=top;childLayout=stackLayout;horizontal=1;startSize=26;horizontalStack=0;resizeParent=1;resizeParentMax=0;resizeLast=0;collapsible=1;marginBottom=0;whiteSpace=wrap;html=1;" vertex="1" parent="1">
          <mxGeometry x="700" y="720" width="200" height="280" as="geometry" />
        </mxCell>
        <mxCell id="TN-Is-sh9F5A8VuO-S4N-67" value="&lt;div&gt;# title: HTMLElement&lt;/div&gt;&lt;div&gt;# image?: HTMLImageElement&lt;/div&gt;&lt;div&gt;# price: HTMLElement&lt;/div&gt;&lt;div&gt;# description?: HTMLElement&lt;/div&gt;&lt;div&gt;# category?: HTMLElement&lt;/div&gt;&lt;div&gt;# button?: HTMLButtonElement&lt;/div&gt;&lt;div&gt;&lt;br&gt;&lt;/div&gt;" style="text;strokeColor=none;fillColor=none;align=left;verticalAlign=top;spacingLeft=4;spacingRight=4;overflow=hidden;rotatable=0;points=[[0,0.5],[1,0.5]];portConstraint=eastwest;whiteSpace=wrap;html=1;" vertex="1" parent="TN-Is-sh9F5A8VuO-S4N-66">
          <mxGeometry y="26" width="200" height="94" as="geometry" />
        </mxCell>
        <mxCell id="TN-Is-sh9F5A8VuO-S4N-68" value="" style="line;strokeWidth=1;fillColor=none;align=left;verticalAlign=middle;spacingTop=-1;spacingLeft=3;spacingRight=3;rotatable=0;labelPosition=right;points=[];portConstraint=eastwest;strokeColor=inherit;" vertex="1" parent="TN-Is-sh9F5A8VuO-S4N-66">
          <mxGeometry y="120" width="200" height="8" as="geometry" />
        </mxCell>
        <mxCell id="TN-Is-sh9F5A8VuO-S4N-69" value="+ toggle(modifier: CardModifier)&lt;br&gt;+&amp;nbsp;id(value: string)&lt;br&gt;+&amp;nbsp;id(): string&lt;br&gt;+&amp;nbsp;title(value: string)&lt;br&gt;+&amp;nbsp;title(): string&lt;br&gt;+&amp;nbsp;price(value: number)&lt;br&gt;+&amp;nbsp;category(value: string)&lt;br&gt;+&amp;nbsp;image(value: string)&lt;br&gt;+&amp;nbsp;description(value: string)&lt;br&gt;+&amp;nbsp;button(value: string)" style="text;strokeColor=none;fillColor=none;align=left;verticalAlign=top;spacingLeft=4;spacingRight=4;overflow=hidden;rotatable=0;points=[[0,0.5],[1,0.5]];portConstraint=eastwest;whiteSpace=wrap;html=1;" vertex="1" parent="TN-Is-sh9F5A8VuO-S4N-66">
          <mxGeometry y="128" width="200" height="152" as="geometry" />
        </mxCell>
        <mxCell id="TN-Is-sh9F5A8VuO-S4N-87" value="Order" style="swimlane;fontStyle=1;align=center;verticalAlign=top;childLayout=stackLayout;horizontal=1;startSize=26;horizontalStack=0;resizeParent=1;resizeParentMax=0;resizeLast=0;collapsible=1;marginBottom=0;whiteSpace=wrap;html=1;" vertex="1" parent="1">
          <mxGeometry x="960" y="1000" width="250" height="120" as="geometry" />
        </mxCell>
        <mxCell id="TN-Is-sh9F5A8VuO-S4N-88" value="&lt;div&gt;# paymentCard: HTMLButtonElement&lt;/div&gt;&lt;div&gt;# paymentCash: HTMLButtonElement&lt;/div&gt;" style="text;strokeColor=none;fillColor=none;align=left;verticalAlign=top;spacingLeft=4;spacingRight=4;overflow=hidden;rotatable=0;points=[[0,0.5],[1,0.5]];portConstraint=eastwest;whiteSpace=wrap;html=1;" vertex="1" parent="TN-Is-sh9F5A8VuO-S4N-87">
          <mxGeometry y="26" width="250" height="34" as="geometry" />
        </mxCell>
        <mxCell id="TN-Is-sh9F5A8VuO-S4N-89" value="" style="line;strokeWidth=1;fillColor=none;align=left;verticalAlign=middle;spacingTop=-1;spacingLeft=3;spacingRight=3;rotatable=0;labelPosition=right;points=[];portConstraint=eastwest;strokeColor=inherit;" vertex="1" parent="TN-Is-sh9F5A8VuO-S4N-87">
          <mxGeometry y="60" width="250" height="8" as="geometry" />
        </mxCell>
        <mxCell id="TN-Is-sh9F5A8VuO-S4N-90" value="+ Order(EventEmitter, HTMLFormElement)&lt;br&gt;+&amp;nbsp;payment(value: PaymentMethod)&lt;br&gt;+&amp;nbsp;address(value: string)" style="text;strokeColor=none;fillColor=none;align=left;verticalAlign=top;spacingLeft=4;spacingRight=4;overflow=hidden;rotatable=0;points=[[0,0.5],[1,0.5]];portConstraint=eastwest;whiteSpace=wrap;html=1;" vertex="1" parent="TN-Is-sh9F5A8VuO-S4N-87">
          <mxGeometry y="68" width="250" height="52" as="geometry" />
        </mxCell>
        <mxCell id="TN-Is-sh9F5A8VuO-S4N-84" value="Contacts" style="swimlane;fontStyle=1;align=center;verticalAlign=top;childLayout=stackLayout;horizontal=1;startSize=26;horizontalStack=0;resizeParent=1;resizeParentMax=0;resizeLast=0;collapsible=1;marginBottom=0;whiteSpace=wrap;html=1;" vertex="1" parent="1">
          <mxGeometry x="1005" y="910" width="160" height="70" as="geometry" />
        </mxCell>
        <mxCell id="TN-Is-sh9F5A8VuO-S4N-85" value="" style="line;strokeWidth=1;fillColor=none;align=left;verticalAlign=middle;spacingTop=-1;spacingLeft=3;spacingRight=3;rotatable=0;labelPosition=right;points=[];portConstraint=eastwest;strokeColor=inherit;" vertex="1" parent="TN-Is-sh9F5A8VuO-S4N-84">
          <mxGeometry y="26" width="160" height="8" as="geometry" />
        </mxCell>
        <mxCell id="TN-Is-sh9F5A8VuO-S4N-86" value="+ email(value: string)&lt;br&gt;+&amp;nbsp;phone(value: string)" style="text;strokeColor=none;fillColor=none;align=left;verticalAlign=top;spacingLeft=4;spacingRight=4;overflow=hidden;rotatable=0;points=[[0,0.5],[1,0.5]];portConstraint=eastwest;whiteSpace=wrap;html=1;" vertex="1" parent="TN-Is-sh9F5A8VuO-S4N-84">
          <mxGeometry y="34" width="160" height="36" as="geometry" />
        </mxCell>
        <mxCell id="TN-Is-sh9F5A8VuO-S4N-70" value="Extends" style="endArrow=block;endSize=16;endFill=0;html=1;rounded=0;" edge="1" parent="1" source="TN-Is-sh9F5A8VuO-S4N-62" target="TN-Is-sh9F5A8VuO-S4N-41">
          <mxGeometry width="160" relative="1" as="geometry">
            <mxPoint x="1720" y="542" as="sourcePoint" />
            <mxPoint x="1520" y="541" as="targetPoint" />
            <Array as="points">
              <mxPoint x="630" y="650" />
              <mxPoint x="1070" y="650" />
            </Array>
          </mxGeometry>
        </mxCell>
        <mxCell id="TN-Is-sh9F5A8VuO-S4N-71" value="Extends" style="endArrow=block;endSize=16;endFill=0;html=1;rounded=0;exitX=0.5;exitY=0;exitDx=0;exitDy=0;" edge="1" parent="1" source="TN-Is-sh9F5A8VuO-S4N-66" target="TN-Is-sh9F5A8VuO-S4N-41">
          <mxGeometry width="160" relative="1" as="geometry">
            <mxPoint x="1730" y="552" as="sourcePoint" />
            <mxPoint x="1530" y="551" as="targetPoint" />
            <Array as="points">
              <mxPoint x="850" y="670" />
              <mxPoint x="1190" y="670" />
            </Array>
          </mxGeometry>
        </mxCell>
        <mxCell id="TN-Is-sh9F5A8VuO-S4N-91" value="Extends" style="endArrow=block;endSize=16;endFill=0;html=1;rounded=0;" edge="1" parent="1" source="TN-Is-sh9F5A8VuO-S4N-84" target="TN-Is-sh9F5A8VuO-S4N-58">
          <mxGeometry x="-0.2402" y="-4" width="160" relative="1" as="geometry">
            <mxPoint x="-90" y="1300" as="sourcePoint" />
            <mxPoint x="-306" y="976" as="targetPoint" />
            <Array as="points">
              <mxPoint x="1800" y="950" />
            </Array>
            <mxPoint as="offset" />
          </mxGeometry>
        </mxCell>
        <mxCell id="TN-Is-sh9F5A8VuO-S4N-78" value="Page" style="swimlane;fontStyle=1;align=center;verticalAlign=top;childLayout=stackLayout;horizontal=1;startSize=26;horizontalStack=0;resizeParent=1;resizeParentMax=0;resizeLast=0;collapsible=1;marginBottom=0;whiteSpace=wrap;html=1;" vertex="1" parent="1">
          <mxGeometry x="980" y="720" width="210" height="168" as="geometry" />
        </mxCell>
        <mxCell id="TN-Is-sh9F5A8VuO-S4N-79" value="&lt;div&gt;# counter: HTMLElement&lt;/div&gt;&lt;div&gt;# catalog: HTMLElement&lt;/div&gt;&lt;div&gt;# wrapper: HTMLElement&lt;/div&gt;&lt;div&gt;# basket: HTMLElement&lt;/div&gt;" style="text;strokeColor=none;fillColor=none;align=left;verticalAlign=top;spacingLeft=4;spacingRight=4;overflow=hidden;rotatable=0;points=[[0,0.5],[1,0.5]];portConstraint=eastwest;whiteSpace=wrap;html=1;" vertex="1" parent="TN-Is-sh9F5A8VuO-S4N-78">
          <mxGeometry y="26" width="210" height="64" as="geometry" />
        </mxCell>
        <mxCell id="TN-Is-sh9F5A8VuO-S4N-80" value="" style="line;strokeWidth=1;fillColor=none;align=left;verticalAlign=middle;spacingTop=-1;spacingLeft=3;spacingRight=3;rotatable=0;labelPosition=right;points=[];portConstraint=eastwest;strokeColor=inherit;" vertex="1" parent="TN-Is-sh9F5A8VuO-S4N-78">
          <mxGeometry y="90" width="210" height="8" as="geometry" />
        </mxCell>
        <mxCell id="TN-Is-sh9F5A8VuO-S4N-81" value="+ Page(IEvents, HTMLElement)&lt;br&gt;+&amp;nbsp;counter(value: number)&lt;br&gt;+&amp;nbsp;catalog(items: HTMLElement[])&lt;br&gt;+ locked(value: boolean)&lt;br&gt;&lt;br&gt;" style="text;strokeColor=none;fillColor=none;align=left;verticalAlign=top;spacingLeft=4;spacingRight=4;overflow=hidden;rotatable=0;points=[[0,0.5],[1,0.5]];portConstraint=eastwest;whiteSpace=wrap;html=1;" vertex="1" parent="TN-Is-sh9F5A8VuO-S4N-78">
          <mxGeometry y="98" width="210" height="70" as="geometry" />
        </mxCell>
        <mxCell id="TN-Is-sh9F5A8VuO-S4N-99" value="Extends" style="endArrow=block;endSize=16;endFill=0;html=1;rounded=0;entryX=-0.002;entryY=0.185;entryDx=0;entryDy=0;entryPerimeter=0;" edge="1" parent="1" source="TN-Is-sh9F5A8VuO-S4N-78" target="TN-Is-sh9F5A8VuO-S4N-48">
          <mxGeometry width="160" relative="1" as="geometry">
            <mxPoint x="990" y="870" as="sourcePoint" />
            <mxPoint x="1150" y="870" as="targetPoint" />
            <Array as="points">
              <mxPoint x="1290" y="650" />
              <mxPoint x="1660" y="650" />
              <mxPoint x="1660" y="555" />
            </Array>
          </mxGeometry>
        </mxCell>
        <mxCell id="TN-Is-sh9F5A8VuO-S4N-101" value="Extends" style="endArrow=block;endSize=16;endFill=0;html=1;rounded=0;entryX=0.838;entryY=1.047;entryDx=0;entryDy=0;entryPerimeter=0;" edge="1" parent="1" source="TN-Is-sh9F5A8VuO-S4N-87" target="TN-Is-sh9F5A8VuO-S4N-61">
          <mxGeometry width="160" relative="1" as="geometry">
            <mxPoint x="1360" y="1010" as="sourcePoint" />
            <mxPoint x="1520" y="1010" as="targetPoint" />
            <Array as="points">
              <mxPoint x="1880" y="1060" />
            </Array>
          </mxGeometry>
        </mxCell>
        <mxCell id="TN-Is-sh9F5A8VuO-S4N-103" value="&lt;p style=&quot;margin:0px;margin-top:4px;text-align:center;&quot;&gt;&lt;i&gt;&amp;lt;&amp;lt;Interface&amp;gt;&amp;gt;&lt;/i&gt;&lt;br&gt;&lt;b&gt;IProduct&lt;/b&gt;&lt;/p&gt;&lt;hr size=&quot;1&quot;&gt;&lt;p style=&quot;margin: 0px 0px 0px 4px; line-height: 140%;&quot;&gt;+ id: string;&lt;/p&gt;&lt;p style=&quot;margin: 0px 0px 0px 4px; line-height: 140%;&quot;&gt;+ description: string;&lt;/p&gt;&lt;p style=&quot;margin: 0px 0px 0px 4px; line-height: 140%;&quot;&gt;+ image: string;&lt;/p&gt;&lt;p style=&quot;margin: 0px 0px 0px 4px; line-height: 140%;&quot;&gt;+ title: string;&lt;/p&gt;&lt;p style=&quot;margin: 0px 0px 0px 4px; line-height: 140%;&quot;&gt;+ category: string;&lt;/p&gt;&lt;p style=&quot;margin: 0px 0px 0px 4px; line-height: 140%;&quot;&gt;+ price: number | null;&lt;/p&gt;" style="verticalAlign=top;align=left;overflow=fill;html=1;whiteSpace=wrap;strokeColor=default;fontFamily=Helvetica;fontSize=12;fontColor=default;fillColor=default;" vertex="1" parent="1">
          <mxGeometry x="190" y="40" width="190" height="160" as="geometry" />
        </mxCell>
        <mxCell id="TN-Is-sh9F5A8VuO-S4N-105" value="&lt;p style=&quot;margin:0px;margin-top:4px;text-align:center;&quot;&gt;&lt;i&gt;&amp;lt;&amp;lt;Interface&amp;gt;&amp;gt;&lt;/i&gt;&lt;br&gt;&lt;b&gt;IBasket&lt;/b&gt;&lt;/p&gt;&lt;hr size=&quot;1&quot;&gt;&lt;p style=&quot;margin: 0px 0px 0px 4px; line-height: 140%;&quot;&gt;+ items: string[ ];&lt;/p&gt;&lt;p style=&quot;margin: 0px 0px 0px 4px; line-height: 140%;&quot;&gt;+ total: number;&lt;/p&gt;" style="verticalAlign=top;align=left;overflow=fill;html=1;whiteSpace=wrap;strokeColor=default;fontFamily=Helvetica;fontSize=12;fontColor=default;fillColor=default;" vertex="1" parent="1">
          <mxGeometry x="400" y="40" width="190" height="160" as="geometry" />
        </mxCell>
        <mxCell id="TN-Is-sh9F5A8VuO-S4N-106" value="&lt;p style=&quot;margin:0px;margin-top:4px;text-align:center;&quot;&gt;&lt;i&gt;&amp;lt;&amp;lt;Interface&amp;gt;&amp;gt;&lt;/i&gt;&lt;br&gt;&lt;b&gt;IOrder&lt;/b&gt;&lt;/p&gt;&lt;hr size=&quot;1&quot;&gt;&lt;p style=&quot;margin: 0px 0px 0px 4px; line-height: 140%;&quot;&gt;+ payment: PaymentMethod;&lt;/p&gt;&lt;p style=&quot;margin: 0px 0px 0px 4px; line-height: 140%;&quot;&gt;+ email: string;&lt;/p&gt;&lt;p style=&quot;margin: 0px 0px 0px 4px; line-height: 140%;&quot;&gt;+ phone: string;&lt;/p&gt;&lt;p style=&quot;margin: 0px 0px 0px 4px; line-height: 140%;&quot;&gt;+ address: string;&lt;/p&gt;&lt;p style=&quot;margin: 0px 0px 0px 4px; line-height: 140%;&quot;&gt;+ items: string[ ];&lt;/p&gt;&lt;p style=&quot;margin: 0px 0px 0px 4px; line-height: 140%;&quot;&gt;+ total: number;&lt;/p&gt;" style="verticalAlign=top;align=left;overflow=fill;html=1;whiteSpace=wrap;strokeColor=default;fontFamily=Helvetica;fontSize=12;fontColor=default;fillColor=default;" vertex="1" parent="1">
          <mxGeometry x="610" y="40" width="190" height="160" as="geometry" />
        </mxCell>
        <mxCell id="TN-Is-sh9F5A8VuO-S4N-107" value="&lt;p style=&quot;margin:0px;margin-top:4px;text-align:center;&quot;&gt;&lt;i&gt;&amp;lt;&amp;lt;Interface&amp;gt;&amp;gt;&lt;/i&gt;&lt;br&gt;&lt;b&gt;IOrderResult&lt;/b&gt;&lt;/p&gt;&lt;hr size=&quot;1&quot;&gt;&lt;p style=&quot;margin: 0px 0px 0px 4px; line-height: 140%;&quot;&gt;+ id: string;&lt;/p&gt;&lt;p style=&quot;margin: 0px 0px 0px 4px; line-height: 140%;&quot;&gt;+ total: number;&lt;/p&gt;" style="verticalAlign=top;align=left;overflow=fill;html=1;whiteSpace=wrap;strokeColor=default;fontFamily=Helvetica;fontSize=12;fontColor=default;fillColor=default;" vertex="1" parent="1">
          <mxGeometry x="820" y="40" width="190" height="160" as="geometry" />
        </mxCell>
        <mxCell id="TN-Is-sh9F5A8VuO-S4N-108" value="&lt;p style=&quot;margin:0px;margin-top:4px;text-align:center;&quot;&gt;&lt;i&gt;&amp;lt;&amp;lt;Interface&amp;gt;&amp;gt;&lt;/i&gt;&lt;br&gt;&lt;b&gt;IWebResultAPI&lt;/b&gt;&lt;/p&gt;&lt;hr size=&quot;1&quot;&gt;&lt;p style=&quot;margin: 0px 0px 0px 4px; line-height: 140%;&quot;&gt;+ getProductList(): Promise;&lt;/p&gt;&lt;p style=&quot;margin: 0px 0px 0px 4px; line-height: 140%;&quot;&gt;+ getProductItem(id: string): Promise&amp;lt;IProduct&amp;gt;&lt;/p&gt;&lt;p style=&quot;margin: 0px 0px 0px 4px; line-height: 140%;&quot;&gt;+ orderProducts(order: IOrder): Promise&amp;lt;IOrderResult&amp;gt;&lt;br&gt;&lt;/p&gt;" style="verticalAlign=top;align=left;overflow=fill;html=1;whiteSpace=wrap;strokeColor=default;fontFamily=Helvetica;fontSize=12;fontColor=default;fillColor=default;" vertex="1" parent="1">
          <mxGeometry x="620" y="240" width="330" height="110" as="geometry" />
        </mxCell>
        <mxCell id="TN-Is-sh9F5A8VuO-S4N-109" value="&lt;p style=&quot;margin:0px;margin-top:4px;text-align:center;&quot;&gt;&lt;i&gt;&amp;lt;&amp;lt;Type&amp;gt;&amp;gt;&lt;/i&gt;&lt;br&gt;&lt;b&gt;PaymentMethod&lt;/b&gt;&lt;/p&gt;&lt;hr size=&quot;1&quot;&gt;&lt;p style=&quot;margin: 0px 0px 0px 4px; line-height: 140%;&quot;&gt;&amp;nbsp;&#39;cash&#39; | &#39;card&#39;&lt;/p&gt;" style="verticalAlign=top;align=left;overflow=fill;html=1;whiteSpace=wrap;strokeColor=default;fontFamily=Helvetica;fontSize=12;fontColor=default;fillColor=default;" vertex="1" parent="1">
          <mxGeometry x="400" y="240" width="190" height="90" as="geometry" />
        </mxCell>
        <mxCell id="TN-Is-sh9F5A8VuO-S4N-111" value="&lt;p style=&quot;margin:0px;margin-top:4px;text-align:center;&quot;&gt;&lt;i&gt;&amp;lt;&amp;lt;Type&amp;gt;&amp;gt;&lt;/i&gt;&lt;br&gt;&lt;b&gt;OrderForm&lt;/b&gt;&lt;/p&gt;&lt;hr size=&quot;1&quot;&gt;&lt;p style=&quot;margin: 0px 0px 0px 4px; line-height: 140%;&quot;&gt;&amp;nbsp;Omit&amp;lt;IOrder, &#39;total&#39; | &#39;items&#39;&amp;gt;&lt;/p&gt;" style="verticalAlign=top;align=left;overflow=fill;html=1;whiteSpace=wrap;strokeColor=default;fontFamily=Helvetica;fontSize=12;fontColor=default;fillColor=default;" vertex="1" parent="1">
          <mxGeometry x="190" y="240" width="190" height="90" as="geometry" />
        </mxCell>
        <mxCell id="TN-Is-sh9F5A8VuO-S4N-112" value="&lt;p style=&quot;margin:0px;margin-top:4px;text-align:center;&quot;&gt;&lt;i&gt;&amp;lt;&amp;lt;Interface&amp;gt;&amp;gt;&lt;/i&gt;&lt;br&gt;&lt;b&gt;IModalData&lt;/b&gt;&lt;/p&gt;&lt;hr size=&quot;1&quot;&gt;&lt;p style=&quot;margin: 0px 0px 0px 4px; line-height: 140%;&quot;&gt;+ content: HTMLElement&lt;/p&gt;" style="verticalAlign=top;align=left;overflow=fill;html=1;whiteSpace=wrap;strokeColor=default;fontFamily=Helvetica;fontSize=12;fontColor=default;fillColor=default;" vertex="1" parent="1">
          <mxGeometry x="1430" y="40" width="190" height="70" as="geometry" />
        </mxCell>
        <mxCell id="TN-Is-sh9F5A8VuO-S4N-113" value="&lt;p style=&quot;margin:0px;margin-top:4px;text-align:center;&quot;&gt;&lt;i&gt;&amp;lt;&amp;lt;Interface&amp;gt;&amp;gt;&lt;/i&gt;&lt;br&gt;&lt;b&gt;IFormState&lt;/b&gt;&lt;/p&gt;&lt;hr size=&quot;1&quot;&gt;&lt;p style=&quot;margin: 0px 0px 0px 4px; line-height: 140%;&quot;&gt;+ valid: boolean;&lt;/p&gt;&lt;p style=&quot;margin: 0px 0px 0px 4px; line-height: 140%;&quot;&gt;+ errors: string[ ];&lt;/p&gt;" style="verticalAlign=top;align=left;overflow=fill;html=1;whiteSpace=wrap;strokeColor=default;fontFamily=Helvetica;fontSize=12;fontColor=default;fillColor=default;" vertex="1" parent="1">
          <mxGeometry x="1430" y="130" width="190" height="90" as="geometry" />
        </mxCell>
        <mxCell id="TN-Is-sh9F5A8VuO-S4N-114" value="&lt;p style=&quot;margin:0px;margin-top:4px;text-align:center;&quot;&gt;&lt;i&gt;&amp;lt;&amp;lt;Interface&amp;gt;&amp;gt;&lt;/i&gt;&lt;br&gt;&lt;b&gt;IPage&lt;/b&gt;&lt;/p&gt;&lt;hr size=&quot;1&quot;&gt;&lt;p style=&quot;margin: 0px 0px 0px 4px; line-height: 140%;&quot;&gt;+ counter: number;&lt;/p&gt;&lt;p style=&quot;margin: 0px 0px 0px 4px; line-height: 140%;&quot;&gt;+ catalog: HTMLElement[ ];&lt;/p&gt;&lt;p style=&quot;margin: 0px 0px 0px 4px; line-height: 140%;&quot;&gt;+ locked: boolean;&lt;/p&gt;" style="verticalAlign=top;align=left;overflow=fill;html=1;whiteSpace=wrap;strokeColor=default;fontFamily=Helvetica;fontSize=12;fontColor=default;fillColor=default;" vertex="1" parent="1">
          <mxGeometry x="1430" y="240" width="190" height="100" as="geometry" />
        </mxCell>
      </root>
    </mxGraphModel>
  </diagram>
</mxfile>
